<svg width="30.000000" height="30.000000" viewBox="0 0 30 30" fill="none" xmlns="http://www.w3.org/2000/svg" xmlns:xlink="http://www.w3.org/1999/xlink">
	<desc>
			Created with Pixso.
	</desc>
	<defs>
		<clipPath id="clip10_2500">
			<rect id="icon" rx="0.000000" width="28.729397" height="28.729397" transform="translate(0.635302 0.635302)" fill="white" fill-opacity="0"/>
		</clipPath>
	</defs>
	<g clip-path="url(#clip10_2500)">
		<path id="Vector" d="M27.34 11.46C27.23 11.35 27.06 11.3 26.9 11.32L20.6 11.32L20.6 8.68C20.6 6.07 18.37 3.96 15.62 3.96C12.87 3.96 10.64 6.07 10.64 8.68L10.64 11.32L4.34 11.32C4.16 11.32 3.99 11.32 3.9 11.46C3.78 11.56 3.73 11.72 3.75 11.87L5.95 23.26C6.26 24.84 7.7 26 9.41 26.03L21.83 26.03C23.54 25.99 24.99 24.82 25.29 23.23L27.49 11.87C27.52 11.72 27.46 11.56 27.34 11.46ZM11.81 8.68C11.81 6.69 13.52 5.07 15.62 5.07C17.72 5.07 19.43 6.69 19.43 8.68L19.43 11.32L11.81 11.32L11.81 8.68ZM24.12 23.09C23.92 24.14 22.96 24.91 21.83 24.92L9.41 24.92C8.28 24.91 7.32 24.14 7.12 23.09L5.04 12.43L26.2 12.43L24.12 23.09Z" fill="#FFFFFF" fill-opacity="1.000000" fill-rule="nonzero"/>
		<path id="Vector" d="M26.9 11.32L20.6 11.32L20.6 8.68C20.6 6.07 18.37 3.96 15.62 3.96C12.87 3.96 10.64 6.07 10.64 8.68L10.64 11.32L4.34 11.32C4.16 11.32 3.99 11.32 3.9 11.46C3.78 11.56 3.73 11.72 3.75 11.87L5.95 23.26C6.26 24.84 7.7 26 9.41 26.03L21.83 26.03C23.54 25.99 24.99 24.82 25.29 23.23L27.49 11.87C27.52 11.72 27.46 11.56 27.34 11.46C27.23 11.35 27.06 11.3 26.9 11.32ZM3.7 11.29Q3.74 11.25 3.77 11.21Q3.88 11.12 4.03 11.08Q4.13 11.06 4.34 11.06L10.38 11.06L10.38 8.68Q10.38 8.17 10.49 7.69Q10.59 7.2 10.8 6.74Q10.94 6.42 11.12 6.14Q11.45 5.6 11.92 5.16Q12.22 4.88 12.55 4.65Q13.03 4.32 13.59 4.1Q13.97 3.94 14.36 3.85Q14.97 3.71 15.62 3.71Q16.27 3.71 16.88 3.85Q17.27 3.94 17.65 4.1Q18.21 4.32 18.69 4.65Q19.02 4.88 19.32 5.16Q19.79 5.6 20.12 6.14Q20.3 6.42 20.44 6.74Q20.65 7.2 20.75 7.69Q20.86 8.17 20.86 8.68L20.86 11.06L26.89 11.06Q26.97 11.05 27.05 11.06Q27.13 11.07 27.22 11.1Q27.33 11.13 27.42 11.19Q27.47 11.23 27.51 11.27Q27.59 11.34 27.64 11.42Q27.68 11.49 27.71 11.56Q27.73 11.63 27.74 11.7Q27.76 11.81 27.74 11.92L25.54 23.28Q25.49 23.56 25.39 23.83Q25.27 24.16 25.08 24.46Q24.97 24.64 24.84 24.81Q24.58 25.14 24.25 25.41Q24.05 25.57 23.84 25.69Q23.51 25.9 23.14 26.04Q22.89 26.13 22.63 26.19Q22.24 26.28 21.84 26.28L21.84 26.28L9.4 26.28Q9 26.28 8.61 26.19Q8.36 26.14 8.11 26.05Q7.73 25.91 7.4 25.71Q7.19 25.58 7 25.42Q6.66 25.16 6.4 24.83Q6.27 24.67 6.16 24.49Q5.98 24.18 5.85 23.85Q5.75 23.58 5.7 23.3L3.5 11.92Q3.49 11.83 3.49 11.74Q3.5 11.65 3.53 11.56Q3.56 11.49 3.6 11.42Q3.64 11.35 3.7 11.29ZM11.81 8.68C11.81 6.69 13.52 5.07 15.62 5.07C17.72 5.07 19.43 6.69 19.43 8.68L19.43 11.32L11.81 11.32L11.81 8.68ZM12.06 11.06L19.18 11.06L19.18 8.68Q19.18 8.34 19.11 8.01Q19.04 7.69 18.9 7.38Q18.81 7.18 18.69 6.99Q18.47 6.62 18.14 6.31Q17.95 6.13 17.73 5.98Q17.4 5.75 17.01 5.59Q16.76 5.49 16.5 5.43Q16.07 5.32 15.62 5.32Q15.17 5.32 14.74 5.43Q14.48 5.49 14.23 5.59Q13.84 5.75 13.51 5.98Q13.3 6.13 13.1 6.31Q12.77 6.62 12.55 6.99Q12.43 7.18 12.34 7.38Q12.2 7.69 12.13 8.01Q12.06 8.34 12.06 8.68L12.06 11.06ZM21.83 24.67L21.83 24.67L9.41 24.67Q9.2 24.66 9 24.62Q8.84 24.59 8.69 24.54Q8.48 24.46 8.29 24.35Q8.18 24.28 8.07 24.2Q7.88 24.04 7.74 23.85Q7.67 23.77 7.62 23.68Q7.52 23.51 7.45 23.33Q7.4 23.19 7.37 23.04L5.35 12.68L25.89 12.68L23.87 23.04Q23.84 23.21 23.78 23.36Q23.72 23.53 23.62 23.68Q23.57 23.77 23.5 23.85Q23.36 24.04 23.17 24.2Q23.06 24.28 22.95 24.35Q22.77 24.46 22.55 24.54Q22.42 24.58 22.28 24.62Q22.06 24.66 21.83 24.67ZM25.94 12.43L5.04 12.43L5.09 12.68L7.12 23.09C7.32 24.14 8.28 24.91 9.41 24.92L21.83 24.92C22.96 24.91 23.92 24.14 24.12 23.09L26.15 12.68L26.2 12.43L25.94 12.43Z" fill="#FFFFFF" fill-opacity="1.000000" fill-rule="evenodd"/>
		<path id="Vector" d="M20.02 17.84C20.34 17.84 20.6 17.59 20.6 17.29L20.6 15.62C20.6 15.32 20.34 15.07 20.02 15.07C19.69 15.07 19.43 15.32 19.43 15.62L19.43 17.29C19.43 17.59 19.69 17.84 20.02 17.84Z" fill="#FFFFFF" fill-opacity="1.000000" fill-rule="nonzero"/>
		<path id="Vector" d="M20.84 17.45Q20.86 17.37 20.86 17.29L20.86 15.62Q20.86 15.54 20.84 15.46Q20.82 15.38 20.79 15.3Q20.76 15.25 20.73 15.19Q20.68 15.11 20.61 15.04Q20.49 14.94 20.36 14.88Q20.2 14.81 20.02 14.81Q19.83 14.81 19.68 14.88Q19.54 14.94 19.43 15.04Q19.36 15.11 19.3 15.19Q19.27 15.25 19.24 15.3Q19.21 15.38 19.19 15.46Q19.18 15.54 19.18 15.62L19.18 17.29Q19.18 17.37 19.19 17.45Q19.21 17.53 19.24 17.6Q19.27 17.66 19.3 17.71Q19.36 17.8 19.43 17.86Q19.54 17.97 19.68 18.03Q19.83 18.1 20.02 18.1Q20.2 18.1 20.36 18.03Q20.49 17.97 20.61 17.86Q20.68 17.8 20.73 17.71Q20.76 17.66 20.79 17.6Q20.82 17.53 20.84 17.45ZM20.02 17.84C20.34 17.84 20.6 17.59 20.6 17.29L20.6 15.62C20.6 15.32 20.34 15.07 20.02 15.07C19.69 15.07 19.43 15.32 19.43 15.62L19.43 17.29C19.43 17.59 19.69 17.84 20.02 17.84Z" fill="#FFFFFF" fill-opacity="1.000000" fill-rule="evenodd"/>
		<path id="Vector" d="M11.22 17.84C11.55 17.84 11.81 17.59 11.81 17.29L11.81 15.62C11.81 15.32 11.55 15.07 11.22 15.07C10.9 15.07 10.64 15.32 10.64 15.62L10.64 17.29C10.64 17.59 10.9 17.84 11.22 17.84Z" fill="#FFFFFF" fill-opacity="1.000000" fill-rule="nonzero"/>
		<path id="Vector" d="M12.05 17.45Q12.06 17.37 12.06 17.29L12.06 15.62Q12.06 15.54 12.05 15.46Q12.03 15.38 12 15.3Q11.97 15.25 11.94 15.19Q11.89 15.11 11.81 15.04Q11.7 14.94 11.56 14.88Q11.41 14.81 11.22 14.81Q11.04 14.81 10.89 14.88Q10.75 14.94 10.64 15.04Q10.56 15.11 10.51 15.19Q10.48 15.25 10.45 15.3Q10.42 15.38 10.4 15.46Q10.38 15.54 10.38 15.62L10.38 17.29Q10.38 17.37 10.4 17.45Q10.42 17.53 10.45 17.6Q10.48 17.66 10.51 17.71Q10.56 17.8 10.64 17.86Q10.75 17.97 10.89 18.03Q11.04 18.1 11.22 18.1Q11.41 18.1 11.56 18.03Q11.7 17.97 11.81 17.86Q11.89 17.8 11.94 17.71Q11.97 17.66 12 17.6Q12.03 17.53 12.05 17.45ZM11.22 17.84C11.55 17.84 11.81 17.59 11.81 17.29L11.81 15.62C11.81 15.32 11.55 15.07 11.22 15.07C10.9 15.07 10.64 15.32 10.64 15.62L10.64 17.29C10.64 17.59 10.9 17.84 11.22 17.84Z" fill="#FFFFFF" fill-opacity="1.000000" fill-rule="evenodd"/>
	</g>
</svg>
