<svg width="30.000000" height="30.000000" viewBox="0 0 30 30" fill="none" xmlns="http://www.w3.org/2000/svg" xmlns:xlink="http://www.w3.org/1999/xlink">
	<desc>
			Created with Pixso.
	</desc>
	<defs>
		<clipPath id="clip10_2495">
			<rect id="search " rx="0.000000" width="30.494484" height="30.494484" transform="translate(0.421190 -0.001417)" fill="white" fill-opacity="0"/>
		</clipPath>
		<clipPath id="clip10_2496">
			<rect id="icon" rx="0.000000" width="28.729397" height="28.729397" transform="translate(0.635302 0.635302)" fill="white" fill-opacity="0"/>
		</clipPath>
	</defs>
	<g clip-path="url(#clip10_2496)">
		<rect id="search " rx="0.000000" width="30.494484" height="30.494484" transform="translate(0.421190 -0.001417)" fill="#FFFFFF" fill-opacity="0"/>
		<g clip-path="url(#clip10_2495)">
			<path id="Vector" d="M27.34 25.51L20.55 18.72C21.88 17.08 22.68 15 22.68 12.73C22.68 7.48 18.4 3.2 13.14 3.2C7.89 3.2 3.61 7.48 3.61 12.73C3.61 17.99 7.89 22.26 13.14 22.26C15.41 22.26 17.49 21.46 19.13 20.14L25.95 26.95C26.16 27.13 26.8 27.53 27.38 26.95C27.88 26.45 27.52 25.69 27.34 25.51ZM13.14 20.26C8.99 20.26 5.62 16.88 5.62 12.73C5.62 8.58 8.99 5.21 13.14 5.21C17.29 5.21 20.67 8.58 20.67 12.73C20.67 16.88 17.29 20.26 13.14 20.26Z" fill="#FFFFFF" fill-opacity="1.000000" fill-rule="nonzero"/>
		</g>
	</g>
</svg>
